<svg xmlns="http://www.w3.org/2000/svg" viewBox="0 0 24 24" width="24" height="24">
  <path d="M12 15.2c1.77 0 3.2-1.43 3.2-3.2S13.77 8.8 12 8.8 8.8 10.23 8.8 12s1.43 3.2 3.2 3.2zm-9-2.2h2.4c.66 0 1.2-.54 1.2-1.2V8.4c0-.66-.54-1.2-1.2-1.2H3c-.66 0-1.2.54-1.2 1.2v3.4c0 .66.54 1.2 1.2 1.2zm15.6-6h-1.92l-1.38-1.65c-.19-.23-.48-.35-.78-.35H9.48c-.3 0-.59.12-.78.35L7.32 7H5.4C4.08 7 3 8.08 3 9.4v9.2c0 1.32 1.08 2.4 2.4 2.4h13.2c1.32 0 2.4-1.08 2.4-2.4V9.4c0-1.32-1.08-2.4-2.4-2.4zM12 17.6c-2.65 0-4.8-2.15-4.8-4.8s2.15-4.8 4.8-4.8 4.8 2.15 4.8 4.8-2.15 4.8-4.8 4.8z" fill="#666"/>
</svg>